<?xml version="1.0" encoding="UTF-8"?>
<svg id="katman_1" xmlns="http://www.w3.org/2000/svg" viewBox="0 0 160.1 49.41">
  <defs>
    <style>
      .cls-1 {
        fill: #fff;
      }

      .cls-2 {
        fill: #314e8d;
      }
    </style>
  </defs>
  <rect class="cls-1" x="5.75" y="7.15" width="149.46" height="35.39" rx="17.69" ry="17.69"/>
  <g>
    <path class="cls-2" d="M36.15,28.77h-4.14l-.69,1.98h-2.19l3.74-10.42h2.43l3.74,10.42h-2.21l-.69-1.98ZM35.58,27.1l-1.51-4.35-1.51,4.35h3.01Z"/>
    <path class="cls-2" d="M47.4,23.3c.61.62.91,1.49.91,2.6v4.84h-2.09v-4.56c0-.66-.16-1.16-.49-1.51-.33-.35-.77-.53-1.34-.53s-1.03.18-1.36.53c-.33.35-.5.86-.5,1.51v4.56h-2.09v-8.26h2.09v1.03c.28-.36.63-.64,1.07-.84s.91-.31,1.42-.31c.98,0,1.78.31,2.38.93Z"/>
    <path class="cls-2" d="M50.26,24.37c.33-.65.78-1.14,1.36-1.49.57-.35,1.21-.52,1.92-.52.62,0,1.16.12,1.62.37s.83.56,1.11.94v-1.18h2.1v8.26h-2.1v-1.21c-.27.39-.64.71-1.11.96s-1.02.38-1.63.38c-.7,0-1.33-.18-1.9-.54-.57-.36-1.02-.86-1.36-1.51-.33-.65-.5-1.4-.5-2.24s.17-1.57.5-2.22ZM55.96,25.32c-.2-.36-.47-.64-.8-.83-.34-.19-.7-.29-1.09-.29s-.75.09-1.07.28c-.33.19-.59.46-.8.83-.2.36-.31.79-.31,1.29s.1.93.31,1.3c.2.37.47.66.8.86.33.2.69.3,1.07.3s.75-.1,1.09-.29c.34-.19.61-.47.8-.83.2-.36.3-.8.3-1.3s-.1-.94-.3-1.3Z"/>
    <path class="cls-2" d="M70.33,28.77h-4.14l-.69,1.98h-2.19l3.74-10.42h2.43l3.74,10.42h-2.21l-.69-1.98ZM69.76,27.1l-1.51-4.35-1.51,4.35h3.01Z"/>
    <path class="cls-2" d="M74.6,24.38c.35-.64.83-1.14,1.45-1.49.62-.35,1.32-.53,2.12-.53,1.02,0,1.87.26,2.54.77s1.12,1.23,1.35,2.15h-2.25c-.12-.36-.32-.64-.6-.84s-.63-.31-1.05-.31c-.6,0-1.07.22-1.42.65s-.52,1.05-.52,1.84.17,1.39.52,1.83c.35.43.82.65,1.42.65.84,0,1.4-.38,1.65-1.13h2.25c-.23.89-.68,1.6-1.36,2.13s-1.52.79-2.53.79c-.8,0-1.5-.18-2.12-.53-.62-.35-1.1-.85-1.45-1.49-.35-.64-.52-1.39-.52-2.24s.17-1.6.52-2.24Z"/>
    <path class="cls-2" d="M91.21,27.25h-6.04c.05.6.26,1.06.63,1.4.37.34.82.51,1.36.51.78,0,1.33-.33,1.66-1h2.25c-.24.8-.7,1.45-1.37,1.96s-1.51.77-2.49.77c-.79,0-1.51-.18-2.14-.53-.63-.35-1.12-.85-1.48-1.5-.35-.65-.53-1.39-.53-2.24s.17-1.6.52-2.25.83-1.14,1.46-1.49c.63-.35,1.35-.52,2.16-.52s1.49.17,2.11.51,1.1.82,1.45,1.44c.34.62.51,1.33.51,2.14,0,.3-.02.57-.06.8ZM89.11,25.84c0-.54-.2-.97-.58-1.29-.38-.32-.84-.48-1.39-.48-.52,0-.95.16-1.3.47-.35.31-.57.75-.65,1.3h3.92Z"/>
    <path class="cls-2" d="M99.75,23.3c.61.62.91,1.49.91,2.6v4.84h-2.09v-4.56c0-.66-.16-1.16-.49-1.51-.33-.35-.78-.53-1.34-.53s-1.03.18-1.36.53c-.33.35-.5.86-.5,1.51v4.56h-2.09v-8.26h2.09v1.03c.28-.36.63-.64,1.07-.84.43-.2.91-.31,1.42-.31.98,0,1.78.31,2.38.93Z"/>
    <path class="cls-2" d="M105.07,24.21v3.99c0,.28.07.48.2.6.13.12.36.19.68.19h.97v1.76h-1.31c-1.76,0-2.64-.85-2.64-2.56v-3.98h-.98v-1.71h.98v-2.04h2.1v2.04h1.85v1.71h-1.85Z"/>
    <path class="cls-2" d="M116.04,27.25h-6.04c.05.6.26,1.06.63,1.4.37.34.82.51,1.36.51.78,0,1.33-.33,1.66-1h2.25c-.24.8-.7,1.45-1.37,1.96s-1.51.77-2.49.77c-.79,0-1.51-.18-2.14-.53-.63-.35-1.12-.85-1.48-1.5-.35-.65-.53-1.39-.53-2.24s.17-1.6.52-2.25.83-1.14,1.46-1.49c.63-.35,1.35-.52,2.16-.52s1.49.17,2.11.51,1.1.82,1.45,1.44c.34.62.51,1.33.51,2.14,0,.3-.02.57-.06.8ZM113.94,25.84c0-.54-.2-.97-.58-1.29-.38-.32-.84-.48-1.39-.48-.52,0-.95.16-1.3.47-.35.31-.57.75-.65,1.3h3.92Z"/>
    <path class="cls-2" d="M130.33,23.3c.62.62.93,1.49.93,2.6v4.84h-2.09v-4.56c0-.65-.16-1.14-.49-1.48-.33-.34-.78-.51-1.34-.51s-1.02.17-1.35.51c-.33.34-.5.84-.5,1.48v4.56h-2.09v-4.56c0-.65-.16-1.14-.49-1.48-.33-.34-.78-.51-1.34-.51s-1.03.17-1.36.51c-.33.34-.5.84-.5,1.48v4.56h-2.09v-8.26h2.09v1c.27-.35.61-.62,1.04-.82.42-.2.89-.3,1.39-.3.65,0,1.22.14,1.73.41s.9.66,1.18,1.17c.27-.48.66-.86,1.17-1.15.51-.29,1.07-.43,1.66-.43,1.01,0,1.83.31,2.45.93Z"/>
  </g>
</svg>