<?xml version="1.0" encoding="UTF-8"?>
<svg id="katman_1" xmlns="http://www.w3.org/2000/svg" viewBox="0 0 65.16 67.48">
  <defs>
    <style>
      .cls-1 {
        fill: #314e8d;
        stroke-width: 3px;
      }

      .cls-1, .cls-2 {
        stroke: #fff;
        stroke-miterlimit: 10;
      }

      .cls-2 {
        fill: #fff;
      }
    </style>
  </defs>
  <circle class="cls-1" cx="32.58" cy="33.74" r="29.09"/>
  <g>
    <path class="cls-2" d="M38.81,43.39h-12.85c-.16,0-.28-.13-.28-.28v-18.04c0-.16.13-.28.28-.28h7.75c.16,0,.28.13.28.28s-.13.28-.28.28h-7.46v17.48h12.28v-17.48h-2.36c-.16,0-.28-.13-.28-.28s.13-.28.28-.28h2.65c.16,0,.28.13.28.28v18.04c0,.16-.13.28-.28.28Z"/>
    <path class="cls-2" d="M36.16,27.8h-2.46c-.16,0-.28-.13-.28-.28v-4.63c0-.16.13-.28.28-.28h2.46c.16,0,.28.13.28.28v4.63c0,.16-.13.28-.28.28ZM33.99,27.24h1.89v-4.06h-1.89v4.06Z"/>
    <path class="cls-2" d="M36.16,30.81h-7.61c-.16,0-.28-.13-.28-.28s.13-.28.28-.28h7.61c.16,0,.28.13.28.28s-.13.28-.28.28Z"/>
    <path class="cls-2" d="M36.16,35.7h-7.61c-.16,0-.28-.13-.28-.28s.13-.28.28-.28h7.61c.16,0,.28.13.28.28s-.13.28-.28.28Z"/>
    <path class="cls-2" d="M36.16,40.87h-7.61c-.16,0-.28-.13-.28-.28s.13-.28.28-.28h7.61c.16,0,.28.13.28.28s-.13.28-.28.28Z"/>
  </g>
</svg>