<?xml version="1.0" encoding="UTF-8"?>
<svg id="katman_1" xmlns="http://www.w3.org/2000/svg" viewBox="0 0 64.85 67.48">
  <defs>
    <style>
      .cls-1 {
        fill: #314e8d;
        stroke-width: 3px;
      }

      .cls-1, .cls-2 {
        stroke: #fff;
        stroke-miterlimit: 10;
      }

      .cls-2 {
        fill: #fff;
      }
    </style>
  </defs>
  <circle class="cls-1" cx="32.42" cy="34.36" r="29.09"/>
  <path class="cls-2" d="M32.42,45.72c-.06,0-.13-.02-.18-.06-.41-.33-10.03-8.15-10.03-14.52,0-2.79,1.43-4.85,3.74-5.4,2.43-.57,5.02.71,6.46,3.15,1.58-2.78,4.38-3.57,6.42-3.11,2.8.64,3.8,3.19,3.8,5.36,0,2.69-1.69,5.95-5.04,9.7-2.47,2.77-4.97,4.8-5,4.82-.05.04-.11.06-.18.06ZM27.16,26.17c-.35,0-.71.04-1.07.13-2.07.49-3.3,2.3-3.3,4.85,0,5.63,8.31,12.82,9.64,13.93,1.33-1.11,9.64-8.29,9.64-13.93,0-2.53-1.25-4.33-3.36-4.81-1.94-.44-4.65.4-6.03,3.28-.05.1-.15.16-.25.16-.1,0-.21-.06-.26-.16-.89-1.78-2.76-3.45-5.01-3.45Z"/>
</svg>