<?xml version="1.0" encoding="UTF-8"?>
<svg id="katman_1" xmlns="http://www.w3.org/2000/svg" viewBox="0 0 160.1 49.41">
  <defs>
    <style>
      .cls-1 {
        fill: #fff;
      }

      .cls-2 {
        fill: #314e8d;
      }
    </style>
  </defs>
  <rect class="cls-1" x="5.12" y="7.15" width="149.46" height="35.39" rx="17.69" ry="17.69"/>
  <g>
    <path class="cls-2" d="M46.94,28.68h-4.14l-.69,1.98h-2.19l3.74-10.42h2.43l3.74,10.42h-2.21l-.69-1.98ZM46.37,27.01l-1.51-4.35-1.51,4.35h3.01Z"/>
    <path class="cls-2" d="M58.19,23.22c.61.62.91,1.49.91,2.6v4.84h-2.09v-4.56c0-.66-.16-1.16-.49-1.51-.33-.35-.77-.53-1.34-.53s-1.03.18-1.36.53c-.33.35-.5.86-.5,1.51v4.56h-2.09v-8.26h2.09v1.03c.28-.36.63-.64,1.07-.84s.91-.31,1.42-.31c.98,0,1.78.31,2.38.93Z"/>
    <path class="cls-2" d="M61.04,24.28c.33-.65.78-1.14,1.36-1.49.57-.35,1.21-.52,1.92-.52.62,0,1.15.12,1.62.37.46.25.83.56,1.11.94v-1.18h2.1v8.26h-2.1v-1.21c-.27.39-.64.71-1.11.96-.47.25-1.02.38-1.63.38-.7,0-1.33-.18-1.9-.54-.57-.36-1.02-.86-1.36-1.51-.33-.65-.5-1.4-.5-2.24s.17-1.57.5-2.22ZM66.74,25.23c-.2-.36-.47-.64-.8-.83-.34-.19-.7-.29-1.09-.29s-.75.09-1.07.28c-.33.19-.59.46-.8.83-.2.36-.31.79-.31,1.29s.1.93.31,1.3c.2.37.47.66.8.86.33.2.69.3,1.07.3s.75-.1,1.09-.29c.34-.19.61-.47.8-.83.2-.36.3-.8.3-1.3s-.1-.94-.3-1.3Z"/>
    <path class="cls-2" d="M76.37,30.39c-.58-.25-1.04-.61-1.38-1.07-.34-.47-.51-1.02-.52-1.65h2.24c.03.43.18.77.45,1.01.27.25.65.37,1.13.37s.87-.12,1.15-.35c.28-.23.42-.54.42-.92,0-.31-.09-.56-.28-.76-.19-.2-.42-.36-.71-.47s-.67-.24-1.17-.38c-.68-.2-1.23-.4-1.65-.59s-.79-.49-1.09-.88-.46-.92-.46-1.57c0-.62.15-1.15.46-1.61.31-.46.74-.81,1.3-1.05.56-.24,1.19-.37,1.91-.37,1.07,0,1.95.26,2.62.78.67.52,1.04,1.25,1.11,2.18h-2.3c-.02-.36-.17-.65-.45-.89s-.66-.35-1.13-.35c-.41,0-.73.1-.98.31-.24.21-.37.51-.37.91,0,.28.09.51.28.69.18.18.41.33.69.45.27.11.66.25,1.15.4.68.2,1.23.4,1.65.6.43.2.79.5,1.1.89.31.4.46.92.46,1.57,0,.56-.14,1.07-.43,1.55-.29.48-.71.86-1.27,1.14s-1.22.42-1.98.42-1.38-.12-1.96-.37Z"/>
    <path class="cls-2" d="M83.77,24.28c.33-.65.78-1.14,1.36-1.49.57-.35,1.21-.52,1.92-.52.62,0,1.15.12,1.62.37.46.25.83.56,1.11.94v-1.18h2.1v8.26h-2.1v-1.21c-.27.39-.64.71-1.11.96-.47.25-1.02.38-1.63.38-.7,0-1.33-.18-1.9-.54-.57-.36-1.02-.86-1.36-1.51-.33-.65-.5-1.4-.5-2.24s.17-1.57.5-2.22ZM89.48,25.23c-.2-.36-.47-.64-.8-.83-.34-.19-.7-.29-1.09-.29s-.75.09-1.07.28c-.33.19-.59.46-.8.83-.2.36-.31.79-.31,1.29s.1.93.31,1.3c.2.37.47.66.8.86.33.2.69.3,1.07.3s.75-.1,1.09-.29c.34-.19.61-.47.8-.83.2-.36.3-.8.3-1.3s-.1-.94-.3-1.3Z"/>
    <path class="cls-2" d="M98.78,22.63c.47.24.83.56,1.1.95v-1.18h2.1v8.32c0,.77-.15,1.45-.46,2.05-.31.6-.77,1.08-1.39,1.43-.62.35-1.36.53-2.24.53-1.17,0-2.13-.27-2.88-.82-.75-.55-1.18-1.29-1.27-2.24h2.07c.11.38.35.68.71.9.36.22.8.33,1.32.33.61,0,1.1-.18,1.48-.54.38-.36.57-.91.57-1.65v-1.28c-.27.39-.64.71-1.11.97-.47.26-1.01.39-1.62.39-.7,0-1.33-.18-1.91-.54-.58-.36-1.03-.86-1.36-1.51-.33-.65-.5-1.4-.5-2.24s.17-1.57.5-2.22.79-1.14,1.36-1.49c.57-.35,1.21-.52,1.92-.52.62,0,1.16.12,1.62.37ZM99.58,25.23c-.2-.36-.47-.64-.8-.83s-.7-.29-1.09-.29-.75.09-1.07.28c-.33.19-.59.46-.8.83s-.3.79-.3,1.29.1.93.3,1.3.47.66.8.86c.33.2.69.3,1.07.3s.75-.1,1.09-.29.61-.47.8-.83c.2-.36.3-.8.3-1.3s-.1-.94-.3-1.3ZM99.72,21.14c-.43.41-1.01.61-1.74.61s-1.29-.21-1.72-.62c-.43-.41-.65-.98-.65-1.69v-.3h1.1c0,.34.09.59.28.77.19.17.52.26.98.26s.79-.09.98-.26c.19-.17.28-.43.28-.77h1.12v.31c0,.72-.21,1.28-.64,1.68Z"/>
    <path class="cls-2" d="M106.11,19.63v11.03h-2.09v-11.03h2.09Z"/>
    <path class="cls-2" d="M110.34,22.4v8.26h-2.09v-8.26h2.09Z"/>
    <path class="cls-2" d="M117.38,30.66l-2.8-3.52v3.52h-2.09v-11.03h2.09v6.27l2.77-3.5h2.71l-3.64,4.14,3.67,4.11h-2.71Z"/>
  </g>
</svg>