<?xml version="1.0" encoding="UTF-8"?>
<svg id="katman_1" xmlns="http://www.w3.org/2000/svg" viewBox="0 0 160.1 49.41">
  <defs>
    <style>
      .cls-1 {
        fill: #fff;
      }

      .cls-2 {
        fill: #314e8d;
      }
    </style>
  </defs>
  <rect class="cls-1" x="5.32" y="7.15" width="149.46" height="35.39" rx="17.69" ry="17.69"/>
  <g>
    <path class="cls-2" d="M47.62,29.22h-4.14l-.69,1.98h-2.19l3.74-10.42h2.43l3.74,10.42h-2.21l-.69-1.98ZM47.06,27.55l-1.51-4.35-1.5,4.35h3.01Z"/>
    <path class="cls-2" d="M58.87,23.76c.61.62.91,1.49.91,2.6v4.84h-2.09v-4.56c0-.66-.16-1.16-.49-1.51-.33-.35-.78-.53-1.34-.53s-1.03.18-1.36.53c-.33.35-.5.86-.5,1.51v4.56h-2.09v-8.26h2.09v1.03c.28-.36.63-.64,1.07-.84.43-.2.91-.31,1.42-.31.98,0,1.78.31,2.38.93Z"/>
    <path class="cls-2" d="M61.73,24.82c.33-.65.79-1.14,1.36-1.49.57-.35,1.21-.52,1.92-.52.62,0,1.15.12,1.62.37.46.25.83.56,1.11.94v-1.18h2.1v8.26h-2.1v-1.21c-.27.39-.64.71-1.11.96-.47.25-1.02.38-1.63.38-.7,0-1.33-.18-1.9-.54-.57-.36-1.02-.86-1.36-1.51-.33-.65-.5-1.4-.5-2.24s.17-1.57.5-2.22ZM67.43,25.77c-.2-.36-.47-.64-.8-.83s-.7-.29-1.09-.29-.75.09-1.07.28c-.33.19-.59.46-.8.83-.2.36-.3.79-.3,1.29s.1.93.3,1.3c.2.37.47.66.81.86.33.2.69.3,1.07.3s.75-.1,1.09-.29.61-.47.8-.83c.2-.36.3-.8.3-1.3s-.1-.94-.3-1.3Z"/>
    <path class="cls-2" d="M77.05,30.93c-.58-.25-1.04-.61-1.38-1.07-.34-.47-.51-1.02-.52-1.65h2.24c.03.43.18.77.46,1.01.27.25.65.37,1.12.37s.87-.12,1.15-.35.42-.54.42-.92c0-.31-.09-.56-.28-.76-.19-.2-.42-.36-.71-.47s-.67-.24-1.17-.38c-.68-.2-1.23-.4-1.65-.59-.42-.19-.79-.49-1.09-.88-.3-.39-.46-.92-.46-1.57,0-.62.15-1.15.46-1.61.31-.46.74-.81,1.3-1.05.56-.24,1.19-.37,1.91-.37,1.07,0,1.95.26,2.62.78.67.52,1.04,1.25,1.11,2.18h-2.3c-.02-.36-.17-.65-.45-.89s-.66-.35-1.13-.35c-.41,0-.73.1-.98.31-.24.21-.37.51-.37.91,0,.28.09.51.28.69.18.18.41.33.69.45s.66.25,1.16.4c.68.2,1.23.4,1.65.6.43.2.79.5,1.1.89.31.4.46.92.46,1.57,0,.56-.14,1.07-.43,1.55-.29.48-.71.86-1.27,1.14s-1.22.42-1.98.42-1.38-.12-1.96-.37Z"/>
    <path class="cls-2" d="M92.11,27.7h-6.04c.05.6.26,1.06.63,1.4.37.34.82.51,1.36.51.78,0,1.33-.33,1.66-1h2.25c-.24.8-.7,1.45-1.37,1.96s-1.51.77-2.49.77c-.79,0-1.51-.18-2.14-.53-.63-.35-1.12-.85-1.48-1.5-.35-.65-.53-1.39-.53-2.24s.17-1.6.52-2.25.83-1.14,1.46-1.49c.63-.35,1.35-.52,2.16-.52s1.49.17,2.11.51,1.1.82,1.45,1.44c.34.62.51,1.33.51,2.14,0,.3-.02.57-.06.8ZM90.01,26.3c0-.54-.2-.97-.58-1.29-.38-.32-.84-.48-1.39-.48-.52,0-.95.16-1.3.47-.35.31-.57.75-.65,1.3h3.92Z"/>
    <path class="cls-2" d="M96.83,23.2c.43-.25.93-.37,1.48-.37v2.19h-.55c-.66,0-1.15.15-1.48.46-.33.31-.5.84-.5,1.61v4.11h-2.09v-8.26h2.09v1.28c.27-.44.62-.78,1.05-1.03Z"/>
    <path class="cls-2" d="M103.16,29.28l2.09-6.33h2.22l-3.06,8.26h-2.53l-3.04-8.26h2.24l2.09,6.33Z"/>
    <path class="cls-2" d="M108.78,21.61c-.24-.23-.37-.52-.37-.87s.12-.64.37-.87c.24-.23.55-.35.92-.35s.67.12.92.35c.24.23.37.52.37.87s-.12.64-.37.87c-.24.23-.55.35-.92.35s-.67-.12-.92-.35ZM110.73,22.94v8.26h-2.09v-8.26h2.09Z"/>
    <path class="cls-2" d="M114.13,30.97c-.54-.24-.96-.57-1.27-.99-.31-.42-.48-.88-.51-1.39h2.1c.04.32.2.58.47.79.27.21.61.31,1.02.31s.71-.08.93-.24c.22-.16.33-.36.33-.61,0-.27-.14-.47-.41-.6-.27-.13-.71-.28-1.3-.44-.62-.15-1.12-.3-1.51-.46-.39-.16-.73-.4-1.01-.73-.28-.33-.42-.77-.42-1.33,0-.46.13-.87.39-1.25.26-.38.64-.68,1.13-.89.49-.22,1.07-.33,1.74-.33.98,0,1.77.25,2.35.74.59.49.91,1.16.97,1.99h-2c-.03-.33-.17-.59-.41-.78-.24-.19-.57-.29-.98-.29-.38,0-.67.07-.87.21-.2.14-.31.33-.31.58,0,.28.14.49.42.63.28.14.71.29,1.3.44.6.15,1.09.3,1.48.46.39.16.72.41,1.01.74.28.33.43.77.44,1.32,0,.48-.13.9-.4,1.28-.26.38-.64.67-1.13.89-.49.21-1.07.32-1.72.32s-1.28-.12-1.82-.37Z"/>
  </g>
</svg>