<?xml version="1.0" encoding="UTF-8"?>
<svg id="katman_1" xmlns="http://www.w3.org/2000/svg" viewBox="0 0 68.54 67.48">
  <defs>
    <style>
      .cls-1 {
        fill: #314e8d;
        stroke-width: 3px;
      }

      .cls-1, .cls-2 {
        stroke: #fff;
        stroke-miterlimit: 10;
      }

      .cls-2 {
        fill: none;
        fill-rule: evenodd;
      }
    </style>
  </defs>
  <circle class="cls-1" cx="34.27" cy="33.96" r="29.09"/>
  <path class="cls-2" d="M24.25,22.39c1.62-.53,3.6-.08,5.03.96l-2.24,1.88-2.79-2.84ZM27.5,39.44l-2.68,2.66v.02c-.8.85-.8,2.19.03,3.02.83.84,2.18.84,3.02.02v.02s3.73-3.69,3.73-3.69l2.3-2.36,5.66,5.67c.86.86,2.27.86,3.13,0h0c.86-.86.87-2.27,0-3.12l-5.62-5.64,3.38-3.37,5.92-.02,1.62-6.05-.65-.65-3.21,3.22-3.13-3.14,3.21-3.22-.64-.65-6.05,1.62v5.75s-.05-.04-.05-.04l-3.46,3.44-3.41-3.41c.95-1.81.96-3.97-.79-5.52l-5.57,4.64-3.26-3.32c-.86,1.96-.49,4.34,1.1,5.95,1.65,1.69,3.58,1.87,5.25,1.22l3.54,3.54-.85.84-2.53,2.52Z"/>
</svg>