<?xml version="1.0" encoding="UTF-8"?>
<svg id="katman_1" xmlns="http://www.w3.org/2000/svg" viewBox="0 0 160.1 49.41">
  <defs>
    <style>
      .cls-1 {
        fill: #fff;
      }

      .cls-2 {
        fill: #314e8d;
      }
    </style>
  </defs>
  <rect class="cls-1" x="5.62" y="7.15" width="149.46" height="35.39" rx="17.69" ry="17.69"/>
  <g>
    <path class="cls-2" d="M28.96,23.29c-.24-.44-.57-.77-.98-1-.42-.23-.9-.34-1.46-.34-.62,0-1.16.14-1.64.42s-.85.68-1.12,1.19c-.27.52-.4,1.11-.4,1.79s.14,1.3.41,1.82c.27.52.65.91,1.14,1.19.49.28,1.05.42,1.7.42.79,0,1.45-.21,1.95-.63.51-.42.84-1.01,1-1.77h-3.58v-1.59h5.63v1.82c-.14.73-.44,1.4-.89,2.01s-1.05,1.11-1.77,1.48c-.72.37-1.53.56-2.42.56-1,0-1.91-.23-2.72-.68s-1.45-1.08-1.91-1.89c-.46-.81-.69-1.72-.69-2.74s.23-1.94.69-2.75,1.1-1.44,1.91-1.89,1.71-.68,2.71-.68c1.17,0,2.19.29,3.06.86.86.57,1.46,1.37,1.79,2.41h-2.4Z"/>
    <path class="cls-2" d="M40.78,27.06h-6.04c.05.6.26,1.06.63,1.4s.82.51,1.36.51c.77,0,1.33-.33,1.65-1h2.25c-.24.8-.7,1.45-1.37,1.96-.68.51-1.51.77-2.49.77-.8,0-1.51-.18-2.14-.53-.63-.35-1.12-.85-1.48-1.5-.35-.65-.53-1.39-.53-2.24s.17-1.6.52-2.25c.35-.65.83-1.14,1.46-1.49.63-.35,1.35-.52,2.16-.52s1.49.17,2.11.51,1.1.82,1.45,1.44c.34.62.51,1.33.51,2.14,0,.3-.02.57-.06.8ZM38.68,25.66c0-.54-.2-.97-.58-1.29-.38-.32-.84-.48-1.39-.48-.52,0-.95.16-1.3.47-.35.31-.57.75-.65,1.3h3.92Z"/>
    <path class="cls-2" d="M49.32,23.12c.61.62.91,1.49.91,2.6v4.84h-2.09v-4.56c0-.66-.16-1.16-.49-1.51-.33-.35-.77-.53-1.34-.53s-1.03.18-1.36.53c-.33.35-.5.86-.5,1.51v4.56h-2.09v-8.26h2.09v1.03c.28-.36.63-.64,1.07-.84.43-.2.91-.31,1.42-.31.98,0,1.78.31,2.38.93Z"/>
    <path class="cls-2" d="M59.83,27.06h-6.04c.05.6.26,1.06.63,1.4s.82.51,1.36.51c.77,0,1.33-.33,1.65-1h2.25c-.24.8-.7,1.45-1.37,1.96-.68.51-1.51.77-2.49.77-.8,0-1.51-.18-2.14-.53-.63-.35-1.12-.85-1.48-1.5-.35-.65-.53-1.39-.53-2.24s.17-1.6.52-2.25c.35-.65.83-1.14,1.46-1.49.63-.35,1.35-.52,2.16-.52s1.49.17,2.11.51,1.1.82,1.45,1.44c.34.62.51,1.33.51,2.14,0,.3-.02.57-.06.8ZM57.73,25.66c0-.54-.2-.97-.58-1.29-.38-.32-.84-.48-1.39-.48-.52,0-.95.16-1.3.47-.35.31-.57.75-.65,1.3h3.92Z"/>
    <path class="cls-2" d="M63.5,19.53v11.03h-2.09v-11.03h2.09Z"/>
    <path class="cls-2" d="M80.45,20.16v10.4h-2.09v-6.77l-2.79,6.77h-1.58l-2.8-6.77v6.77h-2.09v-10.4h2.37l3.31,7.74,3.31-7.74h2.35Z"/>
    <path class="cls-2" d="M90.3,22.3v8.26h-2.1v-1.04c-.27.36-.62.64-1.05.84-.43.2-.9.31-1.41.31-.65,0-1.22-.14-1.71-.41-.5-.27-.89-.68-1.17-1.21s-.42-1.17-.42-1.9v-4.84h2.09v4.55c0,.66.16,1.16.49,1.51.33.35.77.53,1.34.53s1.03-.18,1.36-.53c.33-.35.49-.86.49-1.51v-4.55h2.1ZM84.32,21.04c-.19-.19-.28-.42-.28-.7s.09-.51.28-.71c.19-.19.42-.29.7-.29s.51.1.71.29.29.43.29.71-.1.51-.29.7-.43.28-.71.28-.51-.09-.7-.28ZM87.08,21.04c-.19-.19-.28-.42-.28-.7s.09-.51.28-.71c.19-.19.42-.29.7-.29s.51.1.71.29c.19.19.29.43.29.71s-.1.51-.29.7c-.19.19-.43.28-.71.28s-.51-.09-.7-.28Z"/>
    <path class="cls-2" d="M92.32,24.18c.33-.65.79-1.14,1.36-1.49.58-.35,1.22-.52,1.92-.52.54,0,1.05.12,1.54.35s.87.54,1.16.93v-3.92h2.12v11.03h-2.12v-1.22c-.26.41-.62.74-1.09.98-.47.25-1.01.37-1.62.37-.7,0-1.33-.18-1.91-.54-.58-.36-1.03-.86-1.36-1.51-.33-.65-.5-1.4-.5-2.24s.17-1.57.5-2.22ZM98.02,25.13c-.2-.36-.47-.64-.8-.83-.34-.19-.7-.29-1.09-.29s-.75.09-1.07.28c-.33.19-.59.46-.8.83s-.31.79-.31,1.29.1.93.31,1.3.47.66.81.86c.33.2.69.3,1.07.3s.75-.1,1.09-.29c.34-.19.61-.47.8-.83.2-.36.3-.8.3-1.3s-.1-.94-.3-1.3Z"/>
    <path class="cls-2" d="M110.26,22.3v8.26h-2.1v-1.04c-.27.36-.62.64-1.05.84-.43.2-.9.31-1.41.31-.65,0-1.22-.14-1.71-.41-.5-.27-.89-.68-1.17-1.21s-.42-1.17-.42-1.9v-4.84h2.09v4.55c0,.66.16,1.16.49,1.51.33.35.77.53,1.34.53s1.03-.18,1.36-.53c.33-.35.49-.86.49-1.51v-4.55h2.1ZM104.28,21.04c-.19-.19-.28-.42-.28-.7s.09-.51.28-.71c.19-.19.42-.29.7-.29s.51.1.71.29.29.43.29.71-.1.51-.29.7-.43.28-.71.28-.51-.09-.7-.28ZM107.04,21.04c-.19-.19-.28-.42-.28-.7s.09-.51.28-.71c.19-.19.42-.29.7-.29s.51.1.71.29c.19.19.29.43.29.71s-.1.51-.29.7c-.19.19-.43.28-.71.28s-.51-.09-.7-.28Z"/>
    <path class="cls-2" d="M115.45,22.56c.43-.25.93-.37,1.48-.37v2.19h-.55c-.66,0-1.15.15-1.48.46-.33.31-.5.84-.5,1.61v4.11h-2.09v-8.26h2.09v1.28c.27-.44.62-.78,1.05-1.03Z"/>
    <path class="cls-2" d="M120.42,19.53v11.03h-2.09v-11.03h2.09Z"/>
    <path class="cls-2" d="M130.27,22.3v8.26h-2.1v-1.04c-.27.36-.62.64-1.05.84-.43.2-.9.31-1.41.31-.65,0-1.22-.14-1.71-.41-.5-.27-.89-.68-1.17-1.21s-.42-1.17-.42-1.9v-4.84h2.09v4.55c0,.66.16,1.16.49,1.51.33.35.77.53,1.34.53s1.03-.18,1.36-.53c.33-.35.49-.86.49-1.51v-4.55h2.1ZM124.3,21.04c-.19-.19-.28-.42-.28-.7s.09-.51.28-.71c.19-.19.42-.29.7-.29s.51.1.71.29.29.43.29.71-.1.51-.29.7-.43.28-.71.28-.51-.09-.7-.28ZM127.05,21.04c-.19-.19-.28-.42-.28-.7s.09-.51.28-.71c.19-.19.42-.29.7-.29s.51.1.71.29c.19.19.29.43.29.71s-.1.51-.29.7c-.19.19-.43.28-.71.28s-.51-.09-.7-.28Z"/>
    <path class="cls-2" d="M137.22,30.56l-2.8-3.52v3.52h-2.09v-11.03h2.09v6.27l2.77-3.5h2.71l-3.64,4.14,3.67,4.11h-2.71Z"/>
  </g>
</svg>