<?xml version="1.0" encoding="UTF-8"?>
<svg xmlns="http://www.w3.org/2000/svg" version="1.1" viewBox="0 0 65.2 68.6">
  <defs>
    <style>
      .cls-1 {
        fill: #fff;
      }

      .cls-1, .cls-2 {
        stroke: #fff;
        stroke-miterlimit: 10;
      }

      .cls-2 {
        fill: #314e8d;
        stroke-width: 3px;
      }
    </style>
  </defs>
  <!-- Generator: Adobe Illustrator 28.6.0, SVG Export Plug-In . SVG Version: 1.2.0 Build 709)  -->
  <g>
    <g id="katman_1">
      <circle class="cls-2" cx="32.6" cy="34.3" r="29.1"/>
      <g>
        <path class="cls-1" d="M43.1,35c0,0-.1,0-.2,0l-10.2-10.2-10.2,10.2c-.1.1-.3.1-.4,0-.1-.1-.1-.3,0-.4l10.4-10.4c.1-.1.3-.1.4,0l10.4,10.4c.1.1.1.3,0,.4,0,0-.1,0-.2,0Z"/>
        <path class="cls-1" d="M40.2,44.7h-5c-.2,0-.3-.1-.3-.3v-7.2h-4.6v7.2c0,.2-.1.3-.3.3h-5c-.2,0-.3-.1-.3-.3v-12.3c0-.2.1-.3.3-.3s.3.1.3.3v12h4.5v-7.2c0-.2.1-.3.3-.3h5.2c.2,0,.3.1.3.3v7.2h4.5v-12c0-.2.1-.3.3-.3s.3.1.3.3v12.3c0,.2-.1.3-.3.3Z"/>
      </g>
    </g>
  </g>
</svg>