<?xml version="1.0" encoding="UTF-8"?>
<svg id="katman_1" xmlns="http://www.w3.org/2000/svg" viewBox="0 0 160.1 49.41">
  <defs>
    <style>
      .cls-1 {
        fill: #fff;
      }

      .cls-2 {
        fill: #314e8d;
      }
    </style>
  </defs>
  <rect class="cls-1" x="5.84" y="7.15" width="149.46" height="35.39" rx="17.69" ry="17.69"/>
  <g>
    <path class="cls-2" d="M56.04,20.09v10.4h-2.09v-10.4h2.09ZM54.29,18.81c-.19-.19-.28-.42-.28-.7s.09-.51.28-.71c.19-.19.42-.29.7-.29s.51.1.71.29c.19.19.29.43.29.71s-.1.51-.29.7c-.19.19-.43.28-.71.28s-.51-.09-.7-.28Z"/>
    <path class="cls-2" d="M60.18,19.46v11.03h-2.09v-11.03h2.09Z"/>
    <path class="cls-2" d="M69.86,26.99h-6.04c.05.6.26,1.06.63,1.4s.82.51,1.36.51c.77,0,1.33-.33,1.65-1h2.25c-.24.8-.7,1.45-1.37,1.96-.68.51-1.51.77-2.49.77-.8,0-1.51-.18-2.14-.53-.63-.35-1.12-.85-1.48-1.5-.35-.65-.53-1.39-.53-2.24s.17-1.6.52-2.25c.35-.65.83-1.14,1.46-1.49.63-.35,1.35-.52,2.16-.52s1.49.17,2.11.51,1.1.82,1.45,1.44c.34.62.51,1.33.51,2.14,0,.3-.02.57-.06.8ZM67.75,25.59c0-.54-.2-.97-.58-1.29-.38-.32-.84-.48-1.39-.48-.52,0-.95.16-1.3.47-.35.31-.57.75-.65,1.3h3.92Z"/>
    <path class="cls-2" d="M73.87,23.95v3.99c0,.28.07.48.2.6.13.12.36.19.68.19h.97v1.76h-1.31c-1.76,0-2.64-.85-2.64-2.56v-3.98h-.98v-1.71h.98v-2.04h2.1v2.04h1.85v1.71h-1.85Z"/>
    <path class="cls-2" d="M77.36,20.9c-.24-.23-.37-.52-.37-.87s.12-.64.37-.87.55-.35.92-.35.67.12.92.35c.24.23.37.52.37.87s-.12.64-.37.87c-.24.23-.55.35-.92.35s-.67-.12-.92-.35ZM79.31,22.24v8.26h-2.09v-8.26h2.09Z"/>
    <path class="cls-2" d="M86.56,31.58c.37.28.56.68.56,1.21s-.19.95-.57,1.24c-.38.29-.85.43-1.41.43h-2.12v-1.22h1.77c.24,0,.42-.04.54-.1.12-.07.19-.19.19-.37s-.06-.3-.19-.37c-.12-.06-.31-.1-.54-.1h-.92v-1.71c-.85-.11-1.55-.41-2.09-.91-.54-.5-.82-1.09-.86-1.79h2.1c.04.32.2.58.47.79.27.21.61.31,1.02.31s.71-.08.93-.24c.22-.16.34-.36.34-.61,0-.27-.14-.47-.41-.6-.27-.13-.71-.28-1.3-.44-.62-.15-1.12-.3-1.51-.46-.39-.16-.73-.4-1.01-.73-.28-.33-.42-.77-.42-1.33,0-.46.13-.87.4-1.25.26-.38.64-.68,1.13-.89.49-.22,1.07-.33,1.74-.33.98,0,1.77.25,2.35.74.59.49.91,1.16.97,1.99h-2c-.03-.33-.17-.59-.41-.78-.24-.19-.57-.29-.98-.29-.38,0-.67.07-.87.21-.2.14-.31.33-.31.58,0,.28.14.49.42.63.28.14.71.29,1.3.44.6.15,1.09.3,1.48.46.39.16.72.41,1.01.74.28.33.43.77.44,1.32,0,.64-.23,1.18-.69,1.62s-1.1.72-1.9.82v.58c.55,0,1.01.14,1.38.42Z"/>
    <path class="cls-2" d="M89.63,20.9c-.24-.23-.37-.52-.37-.87s.12-.64.37-.87.55-.35.92-.35.67.12.92.35c.24.23.37.52.37.87s-.12.64-.37.87c-.24.23-.55.35-.92.35s-.67-.12-.92-.35ZM91.57,22.24v8.26h-2.09v-8.26h2.09Z"/>
    <path class="cls-2" d="M106.34,23.05c.62.62.93,1.49.93,2.6v4.84h-2.09v-4.56c0-.65-.16-1.14-.49-1.48-.33-.34-.78-.51-1.34-.51s-1.02.17-1.35.51c-.33.34-.5.84-.5,1.48v4.56h-2.09v-4.56c0-.65-.16-1.14-.49-1.48-.33-.34-.77-.51-1.34-.51s-1.03.17-1.36.51c-.33.34-.5.84-.5,1.48v4.56h-2.09v-8.26h2.09v1c.27-.35.61-.62,1.04-.82.42-.2.89-.3,1.39-.3.65,0,1.22.14,1.73.41s.9.66,1.18,1.17c.27-.48.66-.86,1.17-1.15.51-.29,1.07-.43,1.66-.43,1.01,0,1.83.31,2.45.93Z"/>
  </g>
</svg>