<?xml version="1.0" encoding="UTF-8"?>
<svg id="katman_1" xmlns="http://www.w3.org/2000/svg" viewBox="0 0 65.23 68.61">
  <defs>
    <style>
      .cls-1 {
        fill: #314e8d;
        stroke-width: 3px;
      }

      .cls-1, .cls-2 {
        stroke: #fff;
        stroke-miterlimit: 10;
      }

      .cls-2 {
        fill: #fff;
      }
    </style>
  </defs>
  <circle class="cls-1" cx="32.61" cy="34.31" r="29.09"/>
  <g>
    <path class="cls-2" d="M36.22,36.31c-.11-.11-.29-.11-.4,0l-1.58,1.58-5.03-5.03,1.64-1.64c.11-.11.11-.29,0-.4l-3.61-3.61c-.11-.11-.29-.11-.4,0l-4.44,4.44c-.11.11-.11.29,0,.4l10.62,10.62c.11.11.29.11.4,0,.11-.11.11-.29,0-.4l-10.42-10.42,2.9-2.9,3.21,3.21-.5.5c-.11.11-.11.29,0,.4l5.44,5.44c.11.11.29.11.4,0l.53-.53,3.28,3.28-2.97,2.97c-.11.11-.11.29,0,.4h0c.11.11.29.11.4,0l4.24-4.24c.11-.11.11-.29,0-.4l-3.7-3.66ZM26.3,28.55l.74-.74,3.21,3.21-.74.74-3.21-3.21ZM38.65,40.85l-3.28-3.28.65-.65,3.3,3.26-.67.67Z"/>
    <path class="cls-2" d="M39.28,33.01c.03.15.16.26.31.24.16-.02.27-.17.25-.32-.23-1.41-.89-2.69-1.91-3.71-1.03-1.03-2.33-1.69-3.76-1.92-.16-.02-.3.09-.32.25h0c-.02.15.09.29.24.31,1.31.21,2.49.81,3.44,1.76.93.93,1.54,2.1,1.75,3.39Z"/>
    <path class="cls-2" d="M34.43,29.84c-.14-.07-.32-.01-.38.13h0c-.07.14,0,.3.13.37.55.29,1.06.67,1.51,1.11.44.44.8.93,1.09,1.47.07.14.24.19.37.13.14-.07.21-.24.13-.39-.32-.59-.72-1.13-1.2-1.61-.49-.49-1.05-.9-1.65-1.22Z"/>
    <path class="cls-2" d="M32.48,24.12c-.16,0-.28.15-.26.31.01.15.15.27.3.26,2.63-.14,5.18.83,7.05,2.7,1.89,1.89,2.87,4.48,2.69,7.15-.01.15.1.29.25.3h0c.16.02.3-.1.31-.26.19-2.83-.85-5.58-2.86-7.59-1.98-1.98-4.69-3.01-7.48-2.86Z"/>
  </g>
</svg>