<?xml version="1.0" encoding="UTF-8"?>
<svg id="katman_1" xmlns="http://www.w3.org/2000/svg" viewBox="0 0 65.23 69.74">
  <defs>
    <style>
      .cls-1 {
        fill: #314e8d;
        stroke-width: 3px;
      }

      .cls-1, .cls-2 {
        stroke: #fff;
        stroke-miterlimit: 10;
      }

      .cls-3, .cls-2 {
        fill: #fff;
      }
    </style>
  </defs>
  <circle class="cls-1" cx="32.61" cy="34.87" r="29.09"/>
  <path class="cls-2" d="M27.51,45.14s-.08,0-.11-.02c-.1-.05-.17-.15-.17-.26v-4.39h-4.73c-.16,0-.28-.13-.28-.28v-15.3c0-.16.13-.28.28-.28h20.23c.16,0,.28.13.28.28v15.3c0,.16-.13.28-.28.28h-10l-5.02,4.6c-.05.05-.12.07-.19.07ZM22.78,39.9h4.73c.16,0,.28.13.28.28v4.03l4.63-4.24c.05-.05.12-.07.19-.07h9.83v-14.74h-19.66v14.74Z"/>
  <path class="cls-3" d="M38.5,29.71c.62.62.93,1.49.93,2.6v4.84h-2.09v-4.56c0-.65-.16-1.14-.49-1.48-.33-.34-.78-.51-1.34-.51s-1.02.17-1.35.51c-.33.34-.5.84-.5,1.48v4.56h-2.09v-4.56c0-.65-.16-1.14-.49-1.48-.33-.34-.77-.51-1.34-.51s-1.03.17-1.36.51c-.33.34-.5.84-.5,1.48v4.56h-2.09v-8.26h2.09v1c.27-.35.61-.62,1.04-.82.42-.2.89-.3,1.39-.3.65,0,1.22.14,1.73.41s.9.66,1.18,1.17c.27-.48.66-.86,1.17-1.15.51-.29,1.07-.43,1.66-.43,1.01,0,1.83.31,2.45.93Z"/>
</svg>