<?xml version="1.0" encoding="UTF-8"?>
<svg id="katman_1" xmlns="http://www.w3.org/2000/svg" viewBox="0 0 160.1 49.41">
  <defs>
    <style>
      .cls-1 {
        fill: #fff;
      }

      .cls-2 {
        fill: #314e8d;
      }
    </style>
  </defs>
  <rect class="cls-1" x="5.93" y="7.15" width="149.46" height="35.39" rx="17.69" ry="17.69"/>
  <g>
    <path class="cls-2" d="M56.93,20.07v10.4h-2.09v-6.77l-2.79,6.77h-1.58l-2.8-6.77v6.77h-2.09v-10.4h2.37l3.31,7.74,3.31-7.74h2.35Z"/>
    <path class="cls-2" d="M66.79,22.21v8.26h-2.1v-1.04c-.27.36-.62.64-1.05.84-.43.2-.9.31-1.41.31-.65,0-1.22-.14-1.71-.41-.5-.27-.89-.68-1.17-1.21s-.42-1.17-.42-1.9v-4.84h2.09v4.55c0,.66.16,1.16.49,1.51.33.35.77.53,1.34.53s1.03-.18,1.36-.53c.33-.35.49-.86.49-1.51v-4.55h2.1Z"/>
    <path class="cls-2" d="M75.16,22.51c.49.27.87.68,1.14,1.21.27.53.41,1.17.41,1.92v4.84h-2.09v-4.56c0-.66-.16-1.16-.49-1.51-.33-.35-.77-.53-1.34-.53s-1.03.18-1.36.53c-.33.35-.5.86-.5,1.51v4.56h-2.09v-11.03h2.09v3.8c.27-.36.63-.64,1.07-.84s.94-.31,1.49-.31c.63,0,1.18.14,1.67.41Z"/>
    <path class="cls-2" d="M81.12,23.93v3.99c0,.28.07.48.2.6.13.12.36.19.68.19h.97v1.76h-1.31c-1.76,0-2.64-.85-2.64-2.56v-3.98h-.98v-1.71h.98v-2.04h2.1v2.04h1.85v1.71h-1.85Z"/>
    <path class="cls-2" d="M84.44,24.09c.33-.65.78-1.14,1.36-1.49.57-.35,1.21-.52,1.92-.52.62,0,1.15.12,1.62.37.46.25.83.56,1.11.94v-1.18h2.1v8.26h-2.1v-1.21c-.27.39-.64.71-1.11.96-.47.25-1.02.38-1.63.38-.7,0-1.33-.18-1.9-.54-.57-.36-1.02-.86-1.36-1.51-.33-.65-.5-1.4-.5-2.24s.17-1.57.5-2.22ZM90.14,25.04c-.2-.36-.47-.64-.8-.83-.34-.19-.7-.29-1.09-.29s-.75.09-1.07.28c-.33.19-.59.46-.8.83s-.31.79-.31,1.29.1.93.31,1.3.47.66.81.86c.33.2.69.3,1.07.3s.75-.1,1.09-.29c.34-.19.61-.47.8-.83.2-.36.3-.8.3-1.3s-.1-.94-.3-1.3Z"/>
    <path class="cls-2" d="M97.72,22.47c.43-.25.93-.37,1.48-.37v2.19h-.55c-.66,0-1.15.15-1.48.46-.33.31-.5.84-.5,1.61v4.11h-2.09v-8.26h2.09v1.28c.27-.44.62-.78,1.05-1.03Z"/>
    <path class="cls-2" d="M102.69,19.44v11.03h-2.09v-11.03h2.09Z"/>
    <path class="cls-2" d="M106.92,22.21v8.26h-2.09v-8.26h2.09Z"/>
    <path class="cls-2" d="M113.96,30.47l-2.8-3.52v3.52h-2.09v-11.03h2.09v6.27l2.77-3.5h2.71l-3.64,4.14,3.67,4.11h-2.71Z"/>
  </g>
</svg>